<?xml version="1.0" encoding="UTF-8"?>
<svg id="_02_copy" data-name="02 copy" xmlns="http://www.w3.org/2000/svg" viewBox="0 0 283.46 283.46">
  <defs>
    <style>
      .cls-1 {
        fill: #85287e;
      }
    </style>
  </defs>
  <path class="cls-1" d="M230.25,120.57v-15.86H14.29c-.05,.8-.12,1.42-.12,2.05,0,23.03,.02,84.92,.03,113.54,0,8.23,6.66,14.89,14.89,14.89,26.34,0,90.62,.01,109.1,0,.76,0,1.53-.11,2.33-.18-15.09-30.55-14.3-60.11,6.83-87.04,21.18-27,49.82-34.76,82.89-27.41Z"/>
  <path class="cls-1" d="M208.77,135.41c-33.58-.05-60.75,27.04-60.77,60.62-.02,33.5,26.98,60.6,60.43,60.64,33.46,.05,60.73-26.96,60.85-60.31,.13-33.51-27.08-60.91-60.52-60.96Zm34.62,75.42c-5.45,.04-31.92,.05-37.38,0-5.44-.06-9-3.63-9.04-9.09-.05-5.8-.06-32.64,0-38.46,.06-4.97,3.71-8.77,8.44-8.93,4.79-.16,8.77,3.61,8.98,8.68,.13,2.98,.02,26.99,.02,30.33,2.94,0,26.49-.03,29.03,.01,5.36,.08,9.13,3.73,9.12,8.77-.02,5.02-3.81,8.64-9.17,8.68Z"/>
  <path class="cls-1" d="M230.2,58.5c.02-8.28-6.71-15-15-14.94-9.18,.06-16.14,.15-22.53,.26v17.64c0,7.65-7.27,13.87-14.92,13.87s-14.91-6.21-14.91-13.87v-17.6c-13.97-.06-68.14-.13-82.22-.12v17.72c0,7.65-7.25,13.87-14.92,13.87s-14.91-6.21-14.91-13.87v-17.75c-6.48-.02-12.4-.04-21.53-.06-8.24-.01-14.93,6.67-14.93,14.91v28.34H230.11l.09-28.41Z"/>
  <polygon class="cls-1" points="75.48 36.29 75.38 36.4 75.48 36.4 75.48 36.29"/>
  <path class="cls-1" d="M168,43.86s0,.03-.01,.05h.01v-.05Z"/>
  <path class="cls-1" d="M65.17,67.92c3.87,0,7-3.14,7-7v-27.12c0-3.87-3.14-7-7-7s-7,3.14-7,7v27.12c0,3.87,3.14,7,7,7Z"/>
  <path class="cls-1" d="M178.2,67.92c3.87,0,7-3.14,7-7v-27.12c0-3.87-3.14-7-7-7s-7,3.14-7,7v27.12c0,3.87,3.14,7,7,7Z"/>
</svg>