<svg width="42" height="40" viewBox="0 0 42 40" fill="none" xmlns="http://www.w3.org/2000/svg">
<path d="M35.6021 0H5.88012C2.63263 0 0 2.53854 0 5.67V34.33C0 37.4615 2.63263 40 5.88012 40H35.6021C38.8496 40 41.4823 37.4615 41.4823 34.33V5.67C41.4823 2.53854 38.8496 0 35.6021 0Z" fill="#85287e"/>
<path d="M28.6953 28.3501C28.6953 28.3501 28.6019 28.3501 28.5501 28.3601H12.7039C12.2994 28.4001 11.9883 28.7401 11.9883 29.1301C11.9883 29.5701 12.3513 29.9201 12.8076 29.9201H28.6538C29.1101 29.9201 29.4731 29.5701 29.4731 29.1301C29.4731 28.7001 29.1308 28.3601 28.6849 28.3501H28.6953Z" fill="white"/>
<path d="M20.0048 26.13C20.15 26.27 20.3574 26.35 20.5648 26.34C20.7618 26.34 20.9589 26.27 21.1041 26.13L28.1872 19.76C28.4983 19.46 28.5087 18.9801 28.1975 18.6701C28.1975 18.6701 28.1975 18.67 28.1872 18.66C27.8657 18.36 27.3575 18.36 27.0464 18.66L21.3945 23.76V10.79C21.3737 10.4 21.0419 10.0901 20.6374 10.0801C20.1915 10.0701 19.8285 10.4001 19.8181 10.8301C19.8181 10.8301 19.8181 10.84 19.8181 10.85V23.9301L14.1662 18.6C13.7928 18.36 13.2847 18.46 13.0254 18.82C12.8284 19.1 12.8491 19.4701 13.0565 19.7401L20.0048 26.13Z" fill="white"/>
</svg>
