<?xml version="1.0" encoding="UTF-8"?>
<svg id="_02" data-name="02" xmlns="http://www.w3.org/2000/svg" viewBox="0 0 283.46 283.46">
  <defs>
    <style>
      .cls-1 {
        fill: #79286e;
      }
    </style>
  </defs>
  <g id="njWh3S">
    <path class="cls-1" d="M2.23,281.21c3.81-10.27,7.52-20.24,11.22-30.21,3.8-10.23,7.58-20.48,11.44-30.68,.46-1.22,.13-1.99-.48-2.94-10.55-16.37-17.52-34.14-20.47-53.4-5.32-34.64,.92-67.12,19.78-96.69C45.57,33.01,76.72,11.55,116.81,4.5c44.8-7.89,84.72,3.55,118.71,33.9,24.53,21.9,39.42,49.49,44.15,82.02,6.33,43.58-5.15,82.27-34.61,115.12-22.15,24.7-49.99,39.41-82.83,44.27-30.3,4.48-59.07-.57-86.22-14.81-.8-.42-1.95-.56-2.83-.35-23.16,5.41-46.31,10.88-69.46,16.34-.38,.09-.77,.12-1.49,.23Zm162.24-68.67c-.32-.01-.46-.06-.56-.02-.55,.25-1.08,.54-1.64,.79-3.92,1.74-7.93,3.1-12.31,2.56-3.11-.39-4.84-2.54-4.48-5.61,.32-2.74,.7-5.49,1.27-8.19,6.78-32.03,13.6-64.05,20.41-96.08,.33-1.55,.62-3.1,.93-4.66-.44-.11-.63-.2-.83-.2-18.08-.01-36.16-.01-54.24-.05-1.17,0-1.44,.56-1.64,1.54-1.04,5.22-2.15,10.43-3.23,15.64-.65,3.14-1.3,6.28-2,9.69h18.11c.02,.37,.06,.51,.03,.63-5.18,24.38-10.4,48.75-15.5,73.15-1.32,6.32-2.62,12.67-1.82,19.23,1.23,10.1,6.68,17.23,15.88,19.17,12.67,2.67,24.79,.47,36.14-5.75,.62-.34,1.06-1.34,1.25-2.12,.75-3.07,1.38-6.18,2.04-9.28,.74-3.47,1.46-6.95,2.19-10.45Zm-13.35-127.99c11.68-.06,22.68-8.65,25.55-19.94,3.11-12.25-5.19-22.93-17.33-22.26-12.12,.66-22.75,9.97-25,21.9-2.14,11.35,5.32,20.38,16.78,20.31Z"/>
  </g>
</svg>