<svg width="221" height="58" viewBox="0 0 221 58" fill="none" xmlns="http://www.w3.org/2000/svg">
<g id="Group">
<g id="Group_2">
<g id="Group_3">
<g id="Group_4">
<path id="Vector" d="M9.39034 41.235C9.08034 41.635 8.24033 42.085 7.21033 42.085C5.76033 42.085 4.81033 41.235 4.81033 39.805C4.81033 38.375 5.73034 37.545 7.25034 37.545C7.92034 37.545 8.64034 37.675 9.05034 37.875V39.025H8.99033C8.74033 38.105 8.16034 37.825 7.47034 37.825C6.45034 37.825 5.92033 38.565 5.92033 39.845C5.92033 41.125 6.41034 41.795 7.30034 41.795C7.76034 41.795 8.20033 41.575 8.34033 41.135V40.255C8.35033 40.075 8.23033 39.965 8.03033 39.965H7.93033V39.905H9.80034V39.965H9.71033C9.51033 39.965 9.39034 40.065 9.39034 40.255V41.225V41.235Z" fill="#030303"/>
<path id="Vector_2" d="M17.4103 39.8251C17.4103 41.2251 16.3803 42.0951 14.8403 42.0951C13.3003 42.0951 12.2703 41.2251 12.2703 39.8251C12.2703 38.4251 13.3003 37.5551 14.8403 37.5551C16.3803 37.5551 17.4103 38.4251 17.4103 39.8251ZM16.2903 39.8251C16.2903 38.5951 15.7203 37.8351 14.8303 37.8351C13.9403 37.8351 13.3703 38.5951 13.3703 39.8251C13.3703 41.0551 13.9503 41.8051 14.8303 41.8051C15.7103 41.8051 16.2903 41.0451 16.2903 39.8251Z" fill="#030303"/>
<path id="Vector_3" d="M24.4303 37.635V37.705H24.3703C24.1803 37.705 23.9603 37.805 23.8203 38.075L22.3403 41.195C22.2903 41.305 22.0203 41.875 22.0003 42.085H21.9403L20.0103 38.085C19.8703 37.805 19.6503 37.695 19.4603 37.695H19.4103V37.625H21.5403V37.695H21.4803C21.3203 37.695 21.1303 37.845 21.2303 38.105L22.2503 40.465L23.2903 38.105C23.4003 37.845 23.2103 37.695 23.0503 37.695H22.9903V37.625H24.4403L24.4303 37.635Z" fill="#030303"/>
<path id="Vector_4" d="M30.0403 41.995H26.6203V41.925H26.7103C26.9203 41.925 27.1003 41.765 27.1003 41.545V38.095C27.1003 37.875 26.9203 37.715 26.7103 37.715H26.6203V37.645H29.1803C29.4503 37.645 29.8203 37.575 29.9303 37.535V38.695H29.8603V38.625C29.8603 38.205 29.6203 37.945 29.2003 37.935H28.1503V39.695H28.9803C29.3203 39.695 29.5303 39.445 29.5303 39.125V39.075H29.6103V40.615H29.5303V40.565C29.5303 40.245 29.3203 40.005 28.9803 39.995H28.1403V41.715H29.0103C29.6203 41.715 30.0503 41.315 30.2403 40.675H30.3103L30.0303 42.005L30.0403 41.995Z" fill="#030303"/>
<path id="Vector_5" d="M35.0703 37.635C35.8703 37.635 36.6603 37.915 36.6603 38.825C36.6603 39.335 36.3703 39.895 35.6503 39.995C35.9403 40.085 36.2103 40.385 36.3503 40.615C36.4103 40.725 36.6203 41.085 36.8803 41.425C37.1603 41.815 37.3303 41.915 37.6303 41.915V41.985H37.0203C36.2303 41.985 35.8603 41.835 35.5103 41.285C35.3503 41.025 35.0903 40.535 35.0203 40.295C34.9003 39.995 34.7203 39.865 34.5903 39.845V39.785H34.7803C35.0803 39.785 35.4103 39.665 35.5303 39.055C35.5403 38.995 35.5603 38.895 35.5503 38.755C35.5203 38.035 35.0303 37.935 34.7803 37.925C34.5903 37.925 34.4503 37.925 34.3603 37.925V41.525C34.3603 41.765 34.5603 41.915 34.7503 41.915H34.8303V41.985H32.8303V41.915H32.9203C33.1303 41.915 33.3003 41.755 33.3103 41.535V38.075C33.3103 37.855 33.1403 37.695 32.9303 37.695H32.8403V37.625H35.0703V37.635Z" fill="#030303"/>
<path id="Vector_6" d="M44.9203 37.635V37.705H44.8003C44.5803 37.705 44.4103 37.855 44.4003 38.065V41.235C44.4003 41.745 44.4803 42.075 44.4803 42.075H44.4103L41.0703 39.135V41.535C41.0703 41.745 41.2503 41.905 41.4703 41.905H41.5903V41.975H39.5603V41.905H39.6803C39.9003 41.905 40.0803 41.745 40.0803 41.535V38.345C40.0803 37.855 40.0003 37.525 40.0003 37.525H40.0703L43.4003 40.455V38.065C43.4003 37.855 43.2203 37.695 43.0003 37.695H42.8803V37.625H44.9203V37.635Z" fill="#030303"/>
<path id="Vector_7" d="M52.5103 39.8251C52.5103 41.2251 51.4803 42.0951 49.9403 42.0951C48.4003 42.0951 47.3703 41.2251 47.3703 39.8251C47.3703 38.4251 48.4003 37.5551 49.9403 37.5551C51.4803 37.5551 52.5103 38.4251 52.5103 39.8251ZM51.3903 39.8251C51.3903 38.5951 50.8203 37.8351 49.9303 37.8351C49.0403 37.8351 48.4703 38.5951 48.4703 39.8251C48.4703 41.0551 49.0503 41.8051 49.9303 41.8051C50.8103 41.8051 51.3903 41.0451 51.3903 39.8251Z" fill="#030303"/>
<path id="Vector_8" d="M61.4803 37.635C63.0403 37.635 63.9703 38.445 63.9703 39.815C63.9703 41.185 63.0303 41.995 61.4803 41.995H59.0303V41.925H59.1203C59.3403 41.925 59.5203 41.745 59.5303 41.535V38.095C59.5203 37.875 59.3403 37.715 59.1203 37.715H59.0303V37.645H61.4903L61.4803 37.635ZM60.5703 41.705H61.3903C62.3003 41.705 62.8603 41.005 62.8603 39.825C62.8603 38.645 62.3003 37.925 61.3903 37.925H60.5703V41.705Z" fill="#030303"/>
<path id="Vector_9" d="M69.9103 41.995H66.4903V41.925H66.5803C66.7903 41.925 66.9703 41.765 66.9703 41.545V38.095C66.9703 37.875 66.7903 37.715 66.5803 37.715H66.4903V37.645H69.0503C69.3203 37.645 69.6903 37.575 69.8003 37.535V38.695H69.7303V38.625C69.7303 38.205 69.4903 37.945 69.0703 37.935H68.0203V39.695H68.8503C69.1903 39.695 69.4003 39.445 69.4003 39.125V39.075H69.4803V40.615H69.4003V40.565C69.4003 40.245 69.1903 40.005 68.8503 39.995H68.0103V41.715H68.8803C69.4903 41.715 69.9203 41.315 70.1103 40.675H70.1803L69.9003 42.005L69.9103 41.995Z" fill="#030303"/>
</g>
<path id="Vector_10" d="M25.5403 44.4051V44.5751H25.2503C24.7403 44.5751 24.3103 44.9251 24.3103 45.4251V53.0451C24.3103 54.3051 24.5103 54.9151 24.5103 54.9151H24.3603L17.1503 48.8551V53.6651C17.1703 54.1651 17.5703 54.5251 18.0903 54.5251H18.3803V54.6951H12.5703V54.5251H12.8503C13.3703 54.5251 13.7903 54.1651 13.7903 53.6651V45.9951C13.7903 44.8351 13.5903 44.1851 13.5903 44.1851H13.7403L20.9403 50.2551V45.4451C20.9403 44.9451 20.5303 44.5851 20.0203 44.5851H19.7303V44.4151H25.5703L25.5403 44.4051Z" fill="#030303"/>
<path id="Vector_11" d="M37.3903 53.025C36.7203 53.915 34.5003 54.905 32.0803 54.905C28.6203 54.905 26.4003 52.915 26.4003 49.525C26.4003 46.135 28.5403 44.195 32.2503 44.195C33.8403 44.195 35.8303 44.485 36.6703 44.805L36.4303 47.725H36.3103C35.6803 45.435 34.2803 44.965 33.1303 44.965C30.8603 44.965 29.9103 46.655 29.9103 49.675C29.9103 52.425 30.6803 54.115 32.4603 54.115C33.3203 54.115 34.2203 53.555 34.0703 52.495V50.565C34.0703 50.135 33.7903 49.895 33.3403 49.895H33.1003V49.755H38.3403V49.895H38.1303C37.6603 49.895 37.4003 50.135 37.4003 50.565V53.015L37.3903 53.025Z" fill="#030303"/>
<path id="Vector_12" d="M51.9403 49.565C51.9403 52.955 49.6003 54.915 45.6703 54.915C41.7403 54.915 39.4203 52.955 39.4203 49.565C39.4203 46.155 41.7603 44.205 45.6703 44.205C49.5803 44.205 51.9403 46.165 51.9403 49.565ZM48.4103 49.565C48.4103 46.655 47.4803 44.985 45.6703 44.985C43.8603 44.985 42.9303 46.665 42.9303 49.565C42.9303 52.465 43.8803 54.135 45.6703 54.135C47.4603 54.135 48.4103 52.455 48.4103 49.565Z" fill="#030303"/>
<path id="Vector_13" d="M61.7703 54.705H52.9903V54.535H53.1803C53.6603 54.535 54.0703 54.155 54.0703 53.635V45.465C54.0703 44.955 53.6603 44.575 53.1803 44.575H52.9903V44.405H58.5303V44.575H58.3403C57.8403 44.575 57.4503 44.955 57.4303 45.475V53.905H59.0903C60.4103 53.905 61.6703 52.885 62.1003 51.095H62.2703L61.7803 54.705H61.7703Z" fill="#030303"/>
<path id="Vector_14" d="M73.2603 53.655C73.5803 54.295 74.1303 54.535 74.6003 54.535H74.7303V54.705H68.7003V54.535H68.8303C69.2203 54.535 69.6603 54.235 69.4103 53.665L68.9103 52.525H65.7203L65.2103 53.705C65.0003 54.255 65.4303 54.535 65.8103 54.535H65.9403V54.705H62.4003V54.535H62.5403C62.9703 54.535 63.5403 54.305 63.8503 53.705L67.3803 46.065C67.5803 45.625 68.2103 44.285 68.2703 43.785H68.4003L73.2503 53.665L73.2603 53.655ZM68.5803 51.745L67.3303 48.875L66.0803 51.745H68.5903H68.5803Z" fill="#030303"/>
<path id="Vector_15" d="M11.1403 53.655C11.4603 54.295 12.0103 54.535 12.4803 54.535H12.6103V54.705H6.58034V54.535H6.71033C7.10033 54.535 7.54033 54.235 7.29033 53.665L6.79033 52.525H3.60033L3.09033 53.705C2.88033 54.255 3.31034 54.535 3.69034 54.535H3.82033V54.705H0.280334V54.535H0.420334C0.850334 54.535 1.42033 54.305 1.73033 53.705L5.26033 46.065C5.46033 45.625 6.09033 44.285 6.15033 43.785H6.28033L11.1303 53.665L11.1403 53.655ZM6.46033 51.745L5.21033 48.875L3.96033 51.745H6.47034H6.46033Z" fill="#030303"/>
</g>
<path id="Vector_16" d="M58.0403 31.595L47.4203 2.74502C47.0603 1.59502 45.8203 0.725021 44.5003 0.725021H38.7203L33.0103 0.705017H33.0003C31.6803 0.705017 30.4503 1.57502 30.0903 2.73502C29.0703 5.56502 20.7703 28.565 20.5603 29.245C20.2103 30.355 20.3503 31.515 20.9503 32.325C21.3303 32.835 22.0503 33.435 23.3403 33.515V33.535H35.1003C36.2603 33.535 37.6203 32.495 40.8603 29.935C41.2203 29.655 41.5903 29.365 41.9603 29.065L43.1803 32.575L43.5103 33.535H58.7203L58.0103 31.605L58.0403 31.595Z" fill="white"/>
<path id="Vector_17" d="M45.9603 3.19502C45.8003 2.61502 45.1003 2.15503 44.4003 2.15503H32.8603C33.5603 2.15503 34.2603 2.66502 34.4203 3.23502L44.4603 32.075H56.6003L45.9603 3.18503V3.19502Z" fill="#161614"/>
<path id="Vector_18" d="M39.8503 20.845C37.6303 20.845 36.3403 21.715 34.4303 22.995C30.6803 25.495 27.0403 29.525 24.4903 31.535C23.9803 31.935 23.8103 32.045 23.2603 32.085H35.0203C36.5203 32.085 42.9003 25.745 48.7403 22.565C50.0403 21.855 51.5903 21.115 52.5703 20.855H39.8503V20.845Z" fill="url(#paint0_linear_108_1557)"/>
<path id="Vector_19" d="M21.8403 29.665C22.0503 28.985 31.3703 3.17501 31.3703 3.17501C31.5303 2.59501 32.2203 2.13501 32.9203 2.13501L44.4603 2.18501C43.7603 2.18501 43.0703 2.64501 42.9103 3.22501L33.6603 30.195C33.6603 30.195 33.0203 32.085 34.8703 32.085C34.8703 32.085 25.2003 32.085 23.5203 32.085C21.6303 32.085 21.5603 30.545 21.8303 29.665H21.8403Z" fill="url(#paint1_linear_108_1557)"/>
</g>
<path id="Vector_20" d="M84.5503 0.00500488H83.6403V57.465H84.5503V0.00500488Z" fill="#030303"/>
<g id="Group_5">
<path id="Vector_21" d="M108.8 38.925H109.6V46.775H108.74V40.515L105.8 45.255H105.49L102.54 40.515V46.775H101.68V38.925H102.48L105.65 44.155L108.81 38.925H108.8Z" fill="#030303"/>
<path id="Vector_22" d="M111.61 39.855V38.615H112.5V39.855H111.61ZM111.63 46.775V40.705H112.46V46.775H111.63Z" fill="#030303"/>
<path id="Vector_23" d="M119.92 43.195V46.775H119.08V43.315C119.08 42.105 118.44 41.385 117.31 41.385C116.18 41.385 115.18 42.325 115.18 43.635V46.775H114.35V40.705H115.18V41.795C115.63 41.125 116.44 40.605 117.5 40.605C118.96 40.605 119.92 41.595 119.92 43.195Z" fill="#030303"/>
<path id="Vector_24" d="M121.67 39.855V38.615H122.56V39.855H121.67ZM121.69 46.775V40.705H122.52V46.775H121.69Z" fill="#030303"/>
<path id="Vector_25" d="M123.87 46.085L124.23 45.385C124.9 45.855 125.7 46.105 126.45 46.105C127.44 46.105 128.04 45.785 128.04 45.115C128.04 44.545 127.6 44.295 126.32 44.065C124.59 43.735 124.07 43.235 124.07 42.325C124.07 41.255 124.91 40.625 126.31 40.625C127.1 40.625 128.09 40.865 128.65 41.265L128.3 41.975C127.76 41.605 126.99 41.405 126.25 41.405C125.41 41.405 124.92 41.725 124.92 42.275C124.92 42.785 125.29 43.035 126.56 43.285C128.33 43.655 128.88 44.175 128.88 45.115C128.88 46.245 127.91 46.895 126.4 46.895C125.45 46.895 124.48 46.545 123.86 46.095L123.87 46.085Z" fill="#030303"/>
<path id="Vector_26" d="M134.13 46.515C133.75 46.755 133.11 46.885 132.65 46.885C131.56 46.885 130.86 46.225 130.86 45.095V41.485H129.65V40.715H130.87L130.94 39.075H131.7V40.715H133.89V41.485H131.7V44.955C131.7 45.685 132.15 46.135 132.8 46.135C133.15 46.135 133.65 46.035 133.97 45.865L134.14 46.525L134.13 46.515Z" fill="#030303"/>
<path id="Vector_27" d="M135.71 44.065C135.82 45.295 136.78 46.115 138.09 46.115C138.84 46.115 139.44 45.875 139.88 45.375L140.43 45.865C139.86 46.485 139.05 46.875 138.04 46.875C136.18 46.875 134.86 45.565 134.86 43.735C134.86 41.925 136.11 40.605 137.96 40.605C139.62 40.605 140.78 41.805 140.78 43.555C140.78 45.305 140.77 43.835 140.73 44.065H135.72H135.71ZM135.72 43.335H139.95C139.83 42.065 139.05 41.375 137.95 41.375C136.72 41.375 135.86 42.165 135.72 43.335ZM139.39 38.705L138.1 40.125L137.51 40.045L138.6 38.505L139.4 38.695L139.39 38.705Z" fill="#030303"/>
<path id="Vector_28" d="M145.45 40.695L145.42 41.555C145.23 41.505 145.04 41.475 144.86 41.475C143.66 41.475 142.96 42.625 142.96 43.995V46.765H142.13V40.695H142.96V41.845C143.36 41.075 144.07 40.635 144.88 40.635C145.1 40.635 145.27 40.655 145.45 40.685V40.695Z" fill="#030303"/>
<path id="Vector_29" d="M146.59 39.855V38.615H147.48V39.855H146.59ZM146.61 46.775V40.705H147.44V46.775H146.61Z" fill="#030303"/>
<path id="Vector_30" d="M148.98 43.735C148.98 41.915 150.31 40.605 152.16 40.605C154.01 40.605 155.36 41.915 155.36 43.725C155.36 45.535 154.03 46.885 152.16 46.885C150.29 46.885 148.98 45.565 148.98 43.735ZM154.52 43.735C154.52 42.335 153.53 41.365 152.16 41.365C150.79 41.365 149.82 42.325 149.82 43.735C149.82 45.145 150.81 46.115 152.18 46.115C153.55 46.115 154.52 45.135 154.52 43.735Z" fill="#030303"/>
<path id="Vector_31" d="M165.28 38.495H166.12V46.775H165.28V45.655C164.75 46.445 163.87 46.885 162.84 46.885C161.18 46.885 159.89 45.565 159.89 43.735C159.89 41.905 161.18 40.605 162.84 40.605C163.87 40.605 164.77 41.045 165.28 41.835V38.495ZM165.28 43.735C165.28 42.325 164.3 41.375 162.96 41.375C161.62 41.375 160.72 42.355 160.72 43.735C160.72 45.115 161.65 46.115 162.96 46.115C164.27 46.115 165.28 45.165 165.28 43.735Z" fill="#030303"/>
<path id="Vector_32" d="M172.8 43.005V46.775H171.96V45.635C171.62 46.205 170.82 46.885 169.63 46.885C168.33 46.885 167.53 46.125 167.53 45.025C167.53 43.925 168.26 43.095 169.91 43.095C170.63 43.095 171.33 43.155 171.96 43.215V43.015C171.96 41.935 171.32 41.365 170.13 41.365C169.49 41.365 168.8 41.605 168.27 42.035L167.84 41.415C168.52 40.845 169.39 40.595 170.21 40.595C171.93 40.595 172.8 41.465 172.8 42.995V43.005ZM171.96 44.115V43.935C171.39 43.845 170.82 43.805 170.1 43.805C168.85 43.805 168.34 44.245 168.34 44.985C168.34 45.725 168.9 46.115 169.89 46.115C171.1 46.115 171.96 45.085 171.96 44.115Z" fill="#030303"/>
<path id="Vector_33" d="M177.49 45.725L177.9 45.065C178.66 45.705 179.63 46.085 180.65 46.085C181.9 46.085 182.59 45.505 182.59 44.735C182.59 43.865 181.92 43.555 180.48 43.255C178.7 42.865 177.72 42.275 177.72 40.965C177.72 39.655 178.95 38.815 180.55 38.815C181.56 38.815 182.46 39.145 183.22 39.705L182.75 40.345C182.14 39.915 181.33 39.615 180.5 39.615C179.36 39.615 178.64 40.145 178.64 40.985C178.64 41.825 179.27 42.155 180.74 42.485C182.6 42.885 183.51 43.375 183.51 44.695C183.51 46.015 182.31 46.895 180.61 46.895C179.39 46.895 178.27 46.425 177.5 45.725H177.49Z" fill="#030303"/>
<path id="Vector_34" d="M189.74 43.005V46.775H188.9V45.635C188.56 46.205 187.76 46.885 186.57 46.885C185.27 46.885 184.47 46.125 184.47 45.025C184.47 43.925 185.2 43.095 186.85 43.095C187.57 43.095 188.27 43.155 188.9 43.215V43.015C188.9 41.935 188.26 41.365 187.07 41.365C186.43 41.365 185.74 41.605 185.21 42.035L184.78 41.415C185.46 40.845 186.33 40.595 187.15 40.595C188.87 40.595 189.74 41.465 189.74 42.995V43.005ZM188.9 44.115V43.935C188.33 43.845 187.76 43.805 187.04 43.805C185.8 43.805 185.28 44.245 185.28 44.985C185.28 45.725 185.84 46.115 186.83 46.115C188.04 46.115 188.91 45.085 188.91 44.115H188.9Z" fill="#030303"/>
<path id="Vector_35" d="M196.14 40.705H196.97V46.775H196.14V45.685C195.69 46.355 194.88 46.875 193.82 46.875C192.36 46.875 191.4 45.885 191.4 44.285V40.705H192.24V44.175C192.24 45.385 192.88 46.105 194.01 46.105C195.14 46.105 196.14 45.165 196.14 43.855V40.715V40.705ZM195.74 38.695L194.45 40.115L193.86 40.035L194.95 38.495L195.75 38.685L195.74 38.695Z" fill="#030303"/>
<path id="Vector_36" d="M203.91 38.495H204.75V46.775H203.91V45.655C203.38 46.445 202.5 46.885 201.47 46.885C199.81 46.885 198.52 45.565 198.52 43.735C198.52 41.905 199.81 40.605 201.47 40.605C202.5 40.605 203.4 41.045 203.91 41.835V38.495ZM203.91 43.735C203.91 42.325 202.94 41.375 201.59 41.375C200.24 41.375 199.35 42.355 199.35 43.735C199.35 45.115 200.28 46.115 201.59 46.115C202.9 46.115 203.91 45.165 203.91 43.735Z" fill="#030303"/>
<path id="Vector_37" d="M207.2 44.065C207.31 45.295 208.27 46.115 209.58 46.115C210.33 46.115 210.93 45.875 211.38 45.375L211.93 45.865C211.36 46.485 210.55 46.875 209.54 46.875C207.68 46.875 206.36 45.565 206.36 43.735C206.36 41.905 207.61 40.605 209.45 40.605C211.11 40.605 212.27 41.805 212.27 43.555C212.27 45.305 212.26 43.835 212.22 44.065H207.21H207.2ZM207.21 43.335H211.44C211.32 42.065 210.54 41.375 209.44 41.375C208.21 41.375 207.36 42.165 207.21 43.335Z" fill="#030303"/>
</g>
<g id="Group_6">
<g id="Group_7">
<path id="Vector_38" d="M120.38 20.755V27.5549H117.04V21.3149C117.04 19.9049 116.46 19.1049 115.21 19.1049C113.84 19.1049 112.68 20.315 112.68 22.005V27.5549H109.36V21.3149C109.36 19.9049 108.78 19.1049 107.53 19.1049C106.14 19.1049 105 20.315 105 22.005V27.5549H101.68V16.435H105V17.825C105.82 16.875 107.09 16.1949 108.6 16.1949C110.33 16.1949 111.6 16.9949 112.24 18.4249C113 17.1749 114.45 16.1949 116.28 16.1949C118.79 16.1949 120.38 17.9049 120.38 20.7649V20.755Z" fill="#030303"/>
<path id="Vector_39" d="M122.7 15.285V12.665H126.14V15.285H122.7ZM122.76 27.555V16.435H126.08V27.555H122.76Z" fill="#030303"/>
<path id="Vector_40" d="M139.98 20.8149V27.5549H136.66V21.3749C136.66 19.9049 135.96 19.1049 134.55 19.1049C133.04 19.1049 131.93 20.335 131.93 22.045V27.5549H128.61V16.435H131.93V17.8049C132.75 16.8549 133.98 16.1949 135.59 16.1949C138.27 16.1949 139.98 17.905 139.98 20.825V20.8149Z" fill="#030303"/>
<path id="Vector_41" d="M141.47 26.525L142.58 24.135C143.95 24.815 145.3 25.145 146.7 25.145C147.75 25.145 148.43 24.945 148.43 24.255C148.43 23.565 147.89 23.435 146.18 23.145C142.94 22.625 141.81 21.655 141.81 19.765C141.81 17.455 143.64 16.185 146.46 16.185C148.01 16.185 150.08 16.645 151.23 17.335L150.1 19.725C148.99 19.185 147.61 18.815 146.28 18.815C145.39 18.815 145.01 19.095 145.01 19.555C145.01 20.015 145.39 20.255 147.06 20.565C150.42 21.185 151.59 22.235 151.59 24.145C151.59 26.475 149.52 27.785 146.5 27.785C144.55 27.785 142.76 27.205 141.47 26.515V26.525Z" fill="#030303"/>
<path id="Vector_42" d="M163.52 21.0549V27.5549H160.2V26.2649C159.56 27.0449 158.33 27.795 156.54 27.795C154.21 27.795 152.66 26.345 152.66 24.255C152.66 22.165 154.01 20.655 157.21 20.655C158.14 20.655 159.32 20.715 160.19 20.795C160.13 19.605 159.28 18.9249 157.62 18.9249C156.64 18.9249 155.39 19.305 154.58 19.935L153.25 17.645C154.6 16.655 156.37 16.1949 157.98 16.1949C161.84 16.1949 163.53 18.0649 163.53 21.0649L163.52 21.0549ZM160.18 22.965V22.725C159.54 22.645 158.87 22.6049 158.03 22.6049C156.4 22.6049 155.84 23.1449 155.84 23.9549C155.84 24.7649 156.52 25.185 157.67 25.185C159 25.185 160.06 24.275 160.18 22.975V22.965Z" fill="#030303"/>
</g>
<g id="Group_8">
<path id="Vector_43" d="M168.34 25.775C168.5 25.945 168.58 26.165 168.58 26.455C168.58 26.755 168.49 26.995 168.31 27.175C168.13 27.355 167.9 27.445 167.6 27.445C167.3 27.445 167.09 27.365 166.93 27.195C166.77 27.025 166.69 26.795 166.69 26.495C166.69 26.195 166.78 25.975 166.96 25.795C167.14 25.615 167.38 25.525 167.68 25.525C167.96 25.525 168.18 25.605 168.34 25.775Z" fill="#DE001D"/>
<path id="Vector_44" d="M180.02 18.685C179.54 18.835 178.91 18.975 178.13 19.115L178.09 19.195C178.4 19.675 178.55 20.265 178.55 20.945C178.55 21.945 178.22 22.745 177.55 23.345C176.88 23.935 175.97 24.235 174.83 24.235C174.4 24.235 173.97 24.175 173.55 24.065C173.32 24.245 173.17 24.395 173.08 24.505C173 24.615 172.95 24.745 172.95 24.875C172.95 25.005 173.04 25.205 173.21 25.325C173.38 25.445 173.61 25.545 173.9 25.605C174.19 25.665 174.52 25.725 174.89 25.785C175.26 25.845 175.63 25.905 176.02 25.955C176.4 26.005 176.78 26.085 177.15 26.195C177.52 26.305 177.85 26.435 178.13 26.585C178.41 26.735 178.65 26.945 178.82 27.215C179 27.485 179.09 27.805 179.09 28.165C179.09 28.595 178.97 29.005 178.74 29.395C178.51 29.785 178.2 30.115 177.8 30.395C177.4 30.675 176.93 30.895 176.39 31.055C175.84 31.215 175.26 31.295 174.65 31.295C174.1 31.295 173.6 31.225 173.15 31.095C172.71 30.965 172.34 30.775 172.05 30.535C171.76 30.295 171.54 30.005 171.39 29.675C171.24 29.345 171.16 28.985 171.16 28.595C171.34 28.225 171.58 27.895 171.88 27.615C172.18 27.335 172.54 27.065 172.97 26.805V26.705C172.48 26.555 172.1 26.355 171.83 26.085C171.56 25.825 171.42 25.475 171.42 25.045C171.71 24.565 172.13 24.145 172.68 23.785V23.705C172.24 23.435 171.91 23.075 171.68 22.625C171.45 22.175 171.34 21.645 171.34 21.045C171.34 20.015 171.67 19.215 172.34 18.625C173.01 18.035 173.9 17.745 175.02 17.745C175.75 17.745 176.36 17.875 176.88 18.125C177.81 17.955 178.81 17.715 179.87 17.415L180.03 17.545V18.665L180.02 18.685ZM177.54 28.105C177.48 27.985 177.41 27.885 177.32 27.795C177.24 27.715 177.12 27.635 176.96 27.565C176.8 27.495 176.66 27.435 176.52 27.395C176.38 27.355 176.2 27.305 175.98 27.265C175.75 27.215 175.57 27.185 175.41 27.165C175.26 27.145 175.05 27.115 174.78 27.075C174.52 27.035 174.31 27.005 174.17 26.985C173.64 27.305 173.24 27.605 172.98 27.895C172.72 28.185 172.58 28.485 172.58 28.805C172.58 29.205 172.78 29.535 173.17 29.805C173.56 30.065 174.11 30.195 174.81 30.195C175.61 30.195 176.28 30.035 176.82 29.715C177.36 29.395 177.63 28.995 177.63 28.525C177.63 28.385 177.6 28.245 177.54 28.125V28.105ZM176.07 22.855C176.4 22.675 176.64 22.425 176.81 22.095C176.98 21.765 177.06 21.375 177.06 20.925C177.06 20.475 176.98 20.115 176.83 19.805C176.67 19.495 176.44 19.265 176.13 19.095C175.82 18.925 175.44 18.845 174.99 18.845C174.3 18.845 173.76 19.035 173.37 19.405C172.98 19.775 172.79 20.305 172.79 20.995C172.79 21.645 172.97 22.165 173.34 22.545C173.71 22.915 174.23 23.105 174.9 23.105C175.36 23.105 175.75 23.015 176.08 22.835L176.07 22.855Z" fill="#DE001D"/>
<path id="Vector_45" d="M188.21 18.975C188.92 19.805 189.27 20.975 189.27 22.495C189.27 24.085 188.9 25.315 188.15 26.195C187.4 27.075 186.34 27.505 184.97 27.505C184.11 27.505 183.38 27.315 182.77 26.945C182.16 26.575 181.7 26.035 181.38 25.315C181.06 24.605 180.9 23.735 180.9 22.725C180.9 21.135 181.28 19.905 182.03 19.025C182.78 18.145 183.85 17.715 185.22 17.715C186.5 17.715 187.49 18.135 188.2 18.965L188.21 18.975ZM183.14 19.765C182.69 20.365 182.46 21.225 182.46 22.365C182.46 23.685 182.68 24.675 183.13 25.345C183.58 26.015 184.23 26.335 185.08 26.335C185.93 26.335 186.61 26.045 187.07 25.465C187.52 24.885 187.75 24.015 187.75 22.875C187.75 21.565 187.52 20.575 187.07 19.895C186.62 19.215 185.97 18.875 185.12 18.875C184.27 18.875 183.6 19.175 183.14 19.775V19.765Z" fill="#DE001D"/>
<path id="Vector_46" d="M194.16 25.715H194.26L196.68 19.1649L197.01 17.8749H198.47L195 27.3449H193.24L190.3 17.9249L191.83 17.825L192.1 19.0849L194.14 25.715H194.16Z" fill="#DE001D"/>
<path id="Vector_47" d="M200.41 25.775C200.57 25.945 200.65 26.165 200.65 26.455C200.65 26.755 200.56 26.995 200.38 27.175C200.2 27.355 199.97 27.445 199.67 27.445C199.37 27.445 199.16 27.365 199 27.195C198.84 27.025 198.76 26.795 198.76 26.495C198.76 26.195 198.85 25.975 199.03 25.795C199.21 25.615 199.45 25.525 199.75 25.525C200.03 25.525 200.25 25.605 200.41 25.775Z" fill="#DE001D"/>
<path id="Vector_48" d="M208.96 18.375C209.48 18.815 209.74 19.415 209.74 20.185C209.74 20.955 209.7 21.275 209.61 22.735C209.53 24.195 209.48 25.045 209.48 25.295C209.48 25.585 209.53 25.795 209.62 25.915C209.72 26.035 209.88 26.095 210.12 26.095C210.32 26.095 210.55 26.055 210.81 25.975L210.98 26.115L210.81 27.055C210.39 27.295 210 27.425 209.64 27.465C209.21 27.425 208.87 27.275 208.62 27.015C208.37 26.755 208.23 26.395 208.21 25.945H208.07C207.33 26.705 206.59 27.215 205.85 27.495C204.93 27.495 204.21 27.265 203.69 26.805C203.17 26.345 202.91 25.715 202.91 24.915C202.91 24.305 203.07 23.815 203.4 23.465C203.72 23.115 204.2 22.855 204.83 22.705L208.18 21.915L208.2 20.575C208.2 20.035 208.06 19.625 207.78 19.335C207.5 19.045 207.1 18.905 206.58 18.905C206.12 18.905 205.65 19.015 205.18 19.245C204.71 19.475 204.2 19.815 203.66 20.285L203.49 20.195L203.29 19.025C204.44 18.175 205.61 17.745 206.82 17.745C207.71 17.745 208.41 17.965 208.93 18.395L208.96 18.375ZM205.19 23.695C204.92 23.765 204.72 23.875 204.6 24.025C204.47 24.175 204.41 24.395 204.41 24.675C204.41 25.125 204.54 25.475 204.79 25.735C205.04 25.985 205.39 26.115 205.82 26.115C206.57 26.115 207.34 25.625 208.13 24.655L208.19 22.965L205.19 23.695Z" fill="#DE001D"/>
<path id="Vector_49" d="M219.78 18.975C220.49 19.805 220.84 20.975 220.84 22.495C220.84 24.085 220.47 25.315 219.72 26.195C218.97 27.075 217.91 27.505 216.54 27.505C215.68 27.505 214.95 27.315 214.34 26.945C213.73 26.575 213.27 26.035 212.95 25.315C212.63 24.595 212.47 23.735 212.47 22.725C212.47 21.135 212.85 19.905 213.6 19.025C214.35 18.145 215.42 17.715 216.79 17.715C218.07 17.715 219.06 18.135 219.77 18.965L219.78 18.975ZM214.71 19.765C214.26 20.365 214.03 21.225 214.03 22.365C214.03 23.685 214.25 24.675 214.7 25.345C215.15 26.015 215.8 26.335 216.65 26.335C217.5 26.335 218.18 26.045 218.64 25.465C219.09 24.885 219.32 24.015 219.32 22.875C219.32 21.565 219.09 20.575 218.64 19.895C218.19 19.215 217.54 18.875 216.69 18.875C215.84 18.875 215.17 19.175 214.71 19.775V19.765Z" fill="#DE001D"/>
</g>
</g>
</g>
<defs>
<linearGradient id="paint0_linear_108_1557" x1="36.4703" y1="32.085" x2="36.4703" y2="20.845" gradientUnits="userSpaceOnUse">
<stop stop-color="#E77B10"/>
<stop offset="0.19" stop-color="#FBB500"/>
<stop offset="0.51" stop-color="#E77B10"/>
<stop offset="0.59" stop-color="#E77B10"/>
<stop offset="0.92" stop-color="#FAD300"/>
<stop offset="1" stop-color="#FBB500"/>
</linearGradient>
<linearGradient id="paint1_linear_108_1557" x1="424.468" y1="-1385.39" x2="416.278" y2="-1355.56" gradientUnits="userSpaceOnUse">
<stop stop-color="#A80E1D"/>
<stop offset="0.01" stop-color="#B91C22"/>
<stop offset="0.04" stop-color="#E64131"/>
<stop offset="0.08" stop-color="#A80E1D"/>
<stop offset="0.48" stop-color="#B9071D"/>
<stop offset="0.88" stop-color="#CF001D"/>
<stop offset="0.95" stop-color="#A80E1D"/>
</linearGradient>
</defs>
</svg>
