<?xml version="1.0" encoding="UTF-8"?>
<svg id="_02" data-name="02" xmlns="http://www.w3.org/2000/svg" viewBox="0 0 283.46 283.46">
  <defs>
    <style>
      .cls-1 {
        fill: #79286e;
      }
    </style>
  </defs>
  <path class="cls-1" d="M149.15,167.73c-21.43-21.44-42.89-42.91-64.39-64.42-.12,.1-.39-1.77-.62-1.54-18.22,18.23-40.62,40.58-58.78,58.87-8.86,8.92-15.12,19.43-18.01,31.74-1.1,4.69-1.63,9.51-2.42,14.27v5.62c.83,4.92,1.27,9.94,2.55,14.75,5.33,20.1,17.55,34.74,35.99,44.22,7.79,4,16.11,6.25,24.83,7.04,.5,.05,.98,.23,1.47,.35h10.72c.82-.18,1.63-.42,2.46-.53,11.78-1.46,22.75-5.27,32.09-12.65,6.11-4.83,15.62-14.75,21.44-19.96,1.82-1.63,1.93-3.04,1.12-5.24-7.88-21.24-6.74-42,3.81-62.09,2.31-4.41,5.24-6.42,7.75-10.43Z"/>
  <path class="cls-1" d="M242.68,139.18c4.36-4.99,15.26-15.94,19.55-20.99,11.01-12.96,16.47-28.1,16.31-45.02-.17-18.17-6.38-34.27-19.29-47.16C239.47,6.27,215.78,.44,188.95,8.09c-11.35,3.23-20.87,9.71-29.18,18.04-17.96,18-42.19,42.18-60.17,60.16-.53,.53-1.02,1.08-1.37,1.46,21.54,21.54,43,42.99,64.52,64.51,1.18-.89,2.56-1.89,3.9-2.91,21.73-16.59,54.67-16.22,72.34-9.39,1.53,.59,2.5,.59,3.69-.78Z"/>
  <g>
    <path class="cls-1" d="M211.48,274.28c-2.24,0-4.5-.12-6.73-.35-6.08-.63-12.03-2.18-17.68-4.63-7.55-3.28-14.48-8.18-20.06-14.18-5.84-6.26-10.16-13.55-12.85-21.65-7.71-23.25-3.22-44.25,13.35-62.43,9.43-10.35,21.55-16.53,36.01-18.36,2.76-.35,5.49-.52,8.13-.52,12.6,0,24.3,3.88,34.78,11.53,3.27,2.38,6.26,5.02,8.9,7.83,8.75,9.28,14.09,20.92,15.84,34.58h0c.21,1.62,.29,3.15,.39,4.93,.04,.8,.09,1.66,.15,2.59l.02,.28v.28c-.81,16.5-6.33,30.24-16.43,40.83-4.72,4.95-10.47,9.24-17.1,12.75-8.18,4.33-17.17,6.52-26.72,6.52Zm.17-112.46c-2.24,0-4.57,.15-6.92,.44-12.11,1.53-22.23,6.68-30.08,15.28-14.04,15.4-17.85,33.19-11.32,52.88,2.25,6.78,5.86,12.87,10.75,18.11,4.68,5.04,10.5,9.15,16.83,11.89,4.73,2.05,9.73,3.35,14.84,3.88,1.9,.2,3.82,.3,5.73,.3,7.96,0,15.43-1.82,22.2-5.4,5.71-3.02,10.63-6.68,14.63-10.87,8.4-8.81,13.02-20.37,13.75-34.36-.06-.87-.1-1.67-.14-2.43-.09-1.59-.16-2.96-.33-4.23h0c-1.49-11.6-5.96-21.42-13.3-29.2-2.23-2.38-4.77-4.61-7.55-6.64-8.8-6.42-18.58-9.67-29.09-9.67Z"/>
    <path class="cls-1" d="M245.64,193.4c-2.61,3.93-22.71,34.16-31.47,47.17-1.41,2.09-3.48,3.14-5.59,3.14-1.9,0-3.83-.86-5.3-2.61-7.48-8.79-12.28-14.86-19.82-23.61-1.59-1.84-2.89-3.73-2.68-6.31,.23-2.76,2.04-5.03,4.64-5.84,.63-.19,1.28-.28,1.93-.28,1.97,0,3.91,.87,5.25,2.44,5.88,6.9,9.06,11.09,14.95,17.98,.11,.13,.19,.26,.42,.56,2.46-3.67,19.03-28.81,26.35-39.71,1.57-2.34,3.75-3.6,5.99-3.6,.95,0,1.91,.23,2.85,.69,3.78,1.9,4.91,6.35,2.5,9.97Z"/>
  </g>
</svg>