<?xml version="1.0" encoding="utf-8"?>
<!-- Generator: Adobe Illustrator 27.0.0, SVG Export Plug-In . SVG Version: 6.00 Build 0)  -->
<svg version="1.1" id="_02" xmlns="http://www.w3.org/2000/svg" xmlns:xlink="http://www.w3.org/1999/xlink" x="0px" y="0px"
	 viewBox="0 0 286.2 283.5" style="enable-background:new 0 0 286.2 283.5;" xml:space="preserve">
<style type="text/css">
	.st0{fill:#84287E;}
</style>
<g id="Icon_LiÃ_enÃ_a">
	<path id="Vector" class="st0" d="M199.8,237.2l-1.4-0.5L195,244c-0.8,1.5-2.3,2.5-4,2.5s-3.3-0.9-4-2.5l-3.4-7.3l-1.4,0.5v40.4
		c0,2.1,2.4,3.1,3.9,1.7l3.4-4.5c0.9-0.8,2.2-0.8,3.1,0l3.4,4.5c1.4,1.4,3.9,0.4,3.9-1.7L199.8,237.2z M208.8,216.9l8.1-3.8
		l-8.1-3.8c-2.3-1.1-3.4-3.7-2.5-6.1l3-8.4l-8.4,3c-2.4,0.9-5-0.2-6.1-2.5l-3.8-8.1l-3.8,8.1c-1.1,2.3-3.7,3.4-6.1,2.5l-8.4-3l3,8.4
		c0.9,2.4-0.2,5-2.5,6.1l-8.1,3.8l8.1,3.8c1.8,0.8,2.8,2.6,2.8,4.4c0,0.6-0.1,1.1-0.3,1.7l-3,8.4l5-1.8l0.1-0.1l3.2-1.2
		c0.5-0.2,1.1-0.3,1.6-0.3c1.9,0,3.6,1.1,4.4,2.8l3.8,8.1l3.8-8.1c1.1-2.3,3.7-3.4,6.1-2.5l8.4,3l-3-8.4
		C205.4,220.6,206.5,218,208.8,216.9z M230.1,68.4h-37.6c-1.6,0-2.9-1.3-2.9-2.9V27.9c0-1.7-1.4-3.1-3.1-3.1h-119
		c-1.7,0-3.1,1.4-3.1,3.1v222.3c0,1.7,1.4,3.1,3.1,3.1h103c1.7,0,3.1-1.4,3.1-3.1v-10.7l-2.3,0.8c-2.1,0.8-4.4,0.3-6.1-1.4
		s-2.1-3.9-1.4-6.1l3.6-10l-9.6-4.5c-2-1-3.3-3-3.3-5.3c0-2.3,1.3-4.3,3.3-5.2l9.6-4.6l-3.6-10c-0.8-2.1-0.2-4.4,1.4-6.1
		c1.6-1.6,3.9-2.1,6.1-1.4l10,3.6l4.5-9.6c1-2,3-3.3,5.2-3.3s4.3,1.3,5.2,3.3l4.6,9.6l10-3.6c2.1-0.8,4.4-0.2,6.1,1.4
		c1.6,1.6,2.1,3.9,1.4,6.1l-3.6,10l9.6,4.5c2,1,3.3,3,3.3,5.2s-1.3,4.3-3.3,5.3l-9.6,4.6l3.6,10c0.8,2.1,0.2,4.4-1.4,6.1
		c-1.6,1.6-3.9,2.1-6.1,1.4l-2.3-0.8v13.8h20.8c2.1,0,3.8-1.7,3.8-3.8v-178C233.2,69.8,231.8,68.5,230.1,68.4z M174.2,165.9
		c-7.5,3.9-15.8,6-24.3,6c-28.9,0-52.4-23.5-52.4-52.3c0-5.5,0.9-11,2.6-16.2l-6.8-6.8c-1.4-1.4-0.4-3.7,1.5-3.7h20.9
		c1.2,0,2.2,1,2.2,2.2v20.9c0,1.9-2.3,2.9-3.7,1.5l-5.5-5.5c-0.5,2.5-0.7,5-0.7,7.6c0,23.1,18.8,41.9,41.9,41.9
		c6.7,0,13.3-1.6,19.2-4.6c1.2-0.6,2.7-0.2,3.4,1l2.7,4.5C176,163.5,175.6,165.2,174.2,165.9z M203.7,146.2h-19.3
		c-1.2,0-2.2-1-2.2-2.2v-20.9c0-1.9,2.3-2.9,3.7-1.5l5.2,5.2c0.4-2.4,0.7-4.8,0.7-7.3c0-23.1-18.8-41.9-41.9-41.9
		c-6.7,0-13.3,1.6-19.2,4.6c-1.2,0.6-2.7,0.2-3.4-1l-2.7-4.5c-0.8-1.3-0.3-2.9,1-3.6c7.5-3.9,15.8-6,24.3-6
		c28.9,0,52.3,23.5,52.3,52.4c0,5.4-0.8,10.8-2.5,15.9l5.9,5.9C207.5,143.1,206.2,146.2,203.7,146.2z M197.6,24.8v35.7h35.5
		L197.6,24.8z"/>
</g>
</svg>
